<?xml version="1.0" standalone="no"?><!DOCTYPE svg PUBLIC "-//W3C//DTD SVG 1.1//EN" "http://www.w3.org/Graphics/SVG/1.1/DTD/svg11.dtd"><svg t="1639118756842" class="icon" viewBox="0 0 1024 1024" version="1.1" xmlns="http://www.w3.org/2000/svg" p-id="2603" xmlns:xlink="http://www.w3.org/1999/xlink" width="200" height="200"><defs><style type="text/css"></style></defs><path d="M960 448c-6.4 0-12.9-1.9-18.6-6L512 135.3 82.6 442c-14.4 10.2-34.4 6.9-44.6-7.5-10.3-14.4-6.9-34.4 7.5-44.6l448-320c11.1-7.9 26.1-7.9 37.2 0l448 320c14.4 10.3 17.7 30.3 7.5 44.6-6.4 8.8-16.2 13.5-26.2 13.5zM608 960H416c-17.7 0-32-14.3-32-32V640c0-17.7 14.3-32 32-32h192c17.7 0 32 14.3 32 32v288c0 17.7-14.3 32-32 32z m-160-64h128V672H448v224z" fill="#d81e06" p-id="2604"></path><path d="M832 960H192c-52.9 0-96-43.1-96-96V384c0-17.7 14.3-32 32-32s32 14.3 32 32v480c0 17.6 14.4 32 32 32h640c17.6 0 32-14.4 32-32V384c0-17.7 14.3-32 32-32s32 14.3 32 32v480c0 52.9-43.1 96-96 96z" fill="#d81e06" p-id="2605"></path></svg>